<svg xmlns="http://www.w3.org/2000/svg" width="32" height="32" viewBox="0 0 32 32" version="1.1">
  <path d="M16 2.66669C9.99998 2.66669 5.33331 7.06669 5.33331 12.6667C5.33331 19.8667 12.9333 27.0667 15.3333 29.0667C15.7333 29.4267 16.2666 29.4267 16.6666 29.0667C19.0666 27.0667 26.6666 19.8667 26.6666 12.6667C26.6666 7.06669 22 2.66669 16 2.66669ZM16 18.6667C13.0666 18.6667 10.6666 16.2667 10.6666 13.3334C10.6666 10.4 13.0666 8.00002 16 8.00002C18.9333 8.00002 21.3333 10.4 21.3333 13.3334C21.3333 16.2667 18.9333 18.6667 16 18.6667Z"></path>
</svg>
